# Blender v2.75 (sub 0) OBJ File: 'cubie.blend'
# www.blender.org
mtllib cubie_2.mtl
o Cube.017_Cube.047
v -0.480000 -0.480000 0.500000
v -0.500000 -0.480000 0.480000
v -0.480000 -0.500000 0.480000
v -0.480000 0.480000 0.500000
v -0.480000 0.500000 0.480000
v -0.500000 0.480000 0.480000
v -0.480000 -0.480000 -0.500000
v -0.480000 -0.500000 -0.480000
v -0.500000 -0.480000 -0.480000
v -0.480000 0.500000 -0.480000
v -0.480000 0.480000 -0.500000
v -0.500000 0.480000 -0.480000
v 0.480000 -0.480000 0.500000
v 0.480000 -0.500000 0.480000
v 0.500000 -0.480000 0.480000
v 0.480000 0.500000 0.480000
v 0.480000 0.480000 0.500000
v 0.500000 0.480000 0.480000
v 0.500000 -0.480000 -0.480000
v 0.480000 -0.500000 -0.480000
v 0.480000 -0.480000 -0.500000
v 0.480000 0.500000 -0.480000
v 0.500000 0.480000 -0.480000
v 0.480000 0.480000 -0.500000
vn 0.000000 -1.000000 0.000000
vn 0.000000 0.000000 1.000000
vn 0.000000 1.000000 0.000000
vn -1.000000 0.000000 0.000000
vn 0.000000 0.000000 -1.000000
vn 1.000000 0.000000 0.000000
vn -0.577400 -0.577400 0.577400
vn -0.577400 0.577400 0.577400
vn -0.577400 -0.577400 -0.577400
vn -0.577400 0.577400 -0.577400
vn 0.577400 -0.577400 0.577400
vn 0.577400 0.577400 0.577400
vn 0.577400 -0.577400 -0.577400
vn 0.577400 0.577400 -0.577400
vn -0.707100 0.000000 0.707100
vn -0.707100 0.707100 0.000000
vn -0.707100 0.000000 -0.707100
vn -0.707100 -0.707100 0.000000
vn 0.000000 0.707100 -0.707100
vn 0.707100 0.000000 -0.707100
vn 0.000000 -0.707100 -0.707100
vn 0.707100 0.707100 0.000000
vn 0.707100 0.000000 0.707100
vn 0.707100 -0.707100 0.000000
vn 0.000000 0.707100 0.707100
vn 0.000000 -0.707100 0.707100
usemtl red.046
s off
f 8//1 20//1 14//1
f 3//1 8//1 14//1
usemtl green.046
f 4//2 1//2 13//2
f 17//2 4//2 13//2
usemtl yellow.046
f 22//3 10//3 5//3
f 16//3 22//3 5//3
usemtl blue.046
f 12//4 9//4 2//4
f 6//4 12//4 2//4
usemtl violet.046
f 24//5 21//5 7//5
f 11//5 24//5 7//5
usemtl cyan.046
f 18//6 15//6 19//6
f 23//6 18//6 19//6
usemtl black.017
f 1//7 2//7 3//7
f 4//8 5//8 6//8
f 7//9 8//9 9//9
f 10//10 11//10 12//10
f 13//11 14//11 15//11
f 16//12 17//12 18//12
f 19//13 20//13 21//13
f 22//14 23//14 24//14
f 4//15 6//15 2//15
f 10//16 12//16 6//16
f 7//17 9//17 12//17
f 3//18 2//18 9//18
f 22//19 24//19 11//19
f 19//20 21//20 24//20
f 8//21 7//21 21//21
f 16//22 18//22 23//22
f 13//23 15//23 18//23
f 20//24 19//24 15//24
f 5//25 4//25 17//25
f 14//26 13//26 1//26
f 1//15 4//15 2//15
f 5//16 10//16 6//16
f 11//17 7//17 12//17
f 8//18 3//18 9//18
f 10//19 22//19 11//19
f 23//20 19//20 24//20
f 20//21 8//21 21//21
f 22//22 16//22 23//22
f 17//23 13//23 18//23
f 14//24 20//24 15//24
f 16//25 5//25 17//25
f 3//26 14//26 1//26
